<svg width="20" height="20" viewBox="0 0 20 20" fill="none" xmlns="http://www.w3.org/2000/svg">
<mask id="mask0_91_2247" style="mask-type:luminance" maskUnits="userSpaceOnUse" x="0" y="0" width="20" height="20">
<path d="M0 0H20V20H0V0Z" fill="white"/>
</mask>
<g mask="url(#mask0_91_2247)">
<path d="M15.7667 5.00848C15.6 4.51681 15.1333 4.16681 14.5833 4.16681H5.41667C4.86667 4.16681 4.40833 4.51681 4.23333 5.00848L2.5 10.0001V16.6668C2.5 17.1251 2.875 17.5001 3.33333 17.5001H4.16667C4.625 17.5001 5 17.1251 5 16.6668V15.8335H15V16.6668C15 17.1251 15.375 17.5001 15.8333 17.5001H16.6667C17.125 17.5001 17.5 17.1251 17.5 16.6668V10.0001L15.7667 5.00848ZM5.41667 13.3335C4.725 13.3335 4.16667 12.7751 4.16667 12.0835C4.16667 11.3918 4.725 10.8335 5.41667 10.8335C6.10833 10.8335 6.66667 11.3918 6.66667 12.0835C6.66667 12.7751 6.10833 13.3335 5.41667 13.3335ZM14.5833 13.3335C13.8917 13.3335 13.3333 12.7751 13.3333 12.0835C13.3333 11.3918 13.8917 10.8335 14.5833 10.8335C15.275 10.8335 15.8333 11.3918 15.8333 12.0835C15.8333 12.7751 15.275 13.3335 14.5833 13.3335ZM4.16667 9.16681L5.41667 5.41681H14.5833L15.8333 9.16681H4.16667Z" fill="#2D3142"/>
</g>
</svg>
